{"title":"Jo Dee Messina - Greatest Hits WAV","uid":4748315,"size":573433223,"categoryP":"audio","categoryS":"music","magnet":"?xt=urn:btih:33401727798e7feecc2a79d25a6a2fd1b38e0766&amp;dn=Jo+Dee+Messina+-+Greatest+Hits+WAV&amp;tr=udp%3A%2F%2Ftracker.openbittorrent.com%3A80&amp;tr=udp%3A%2F%2Fopen.demonii.com%3A1337&amp;tr=udp%3A%2F%2Ftracker.coppersurfer.tk%3A6969&amp;tr=udp%3A%2F%2Fexodus.desync.com%3A6969","seeders":1,"leechers":0,"uploader":"Shawn1292","files":16,"time":1236011705,"description":"REM GENRE Country\nREM DATE 2003\nREM DISCID B80E8410\nREM COMMENT &quot;ExactAudioCopy v0.99pb3&quot;\nPERFORMER &quot;Jo Dee Messina&quot;\nTITLE &quot;Greatest Hits&quot;\nFILE &quot;Jo Dee Messina - Greatest Hits - 01. Was That My Life.wav&quot; WAVE\n  TRACK 01 AUDIO\n    TITLE &quot;Was That My Life&quot;\n    PERFORMER &quot;Jo Dee Messina&quot;\n    INDEX 01 00:00:00\n  TRACK 02 AUDIO\n    TITLE &quot;I'm Alright&quot;\n    PERFORMER &quot;Jo Dee Messina&quot;\n    INDEX 00 03:49:30\nFILE &quot;Jo Dee Messina - Greatest Hits - 02. I'm Alright.wav&quot; WAVE\n    INDEX 01 00:00:00\n  TRACK 03 AUDIO\n    TITLE &quot;Heads Carolina, Tails California&quot;\n    PERFORMER &quot;Jo Dee Messina&quot;\n    INDEX 00 03:15:50\nFILE &quot;Jo Dee Messina - Greatest Hits - 03. Heads Carolina, Tails California.wav&quot; WAVE\n    INDEX 01 00:00:00\n  TRACK 04 AUDIO\n    TITLE &quot;Bye-Bye&quot;\n    PERFORMER &quot;Jo Dee Messina&quot;\n    INDEX 00 03:27:58\nFILE &quot;Jo Dee Messina - Greatest Hits - 04. Bye-Bye.wav&quot; WAVE\n    INDEX 01 00:00:00\n  TRACK 05 AUDIO\n    TITLE &quot;Stand Beside Me&quot;\n    PERFORMER &quot;Jo Dee Messina&quot;\n    INDEX 00 03:19:00\nFILE &quot;Jo Dee Messina - Greatest Hits - 05. Stand Beside Me.wav&quot; WAVE\n    INDEX 01 00:00:00\n  TRACK 06 AUDIO\n    TITLE &quot;Bring On The Rain (With Tim McGraw)&quot;\n    PERFORMER &quot;Jo Dee Messina&quot;\n    INDEX 00 03:40:72\nFILE &quot;Jo Dee Messina - Greatest Hits - 06. Bring On The Rain (With Tim McGraw).wav&quot; WAVE\n    INDEX 01 00:00:00\nFILE &quot;Jo Dee Messina - Greatest Hits - 07. Lesson In Leavin'.wav&quot; WAVE\n  TRACK 07 AUDIO\n    TITLE &quot;Lesson In Leavin'&quot;\n    PERFORMER &quot;Jo Dee Messina&quot;\n    INDEX 01 00:00:00\n  TRACK 08 AUDIO\n    TITLE &quot;That's The Way&quot;\n    PERFORMER &quot;Jo Dee Messina&quot;\n    INDEX 00 03:37:57\nFILE &quot;Jo Dee Messina - Greatest Hits - 08. That's The Way.wav&quot; WAVE\n    INDEX 01 00:00:00\n  TRACK 09 AUDIO\n    TITLE &quot;Burn&quot;\n    PERFORMER &quot;Jo Dee Messina&quot;\n    INDEX 00 03:21:18\nFILE &quot;Jo Dee Messina - Greatest Hits - 09. Burn.wav&quot; WAVE\n    INDEX 01 00:00:00\n  TRACK 10 AUDIO\n    TITLE &quot;Downtime&quot;\n    PERFORMER &quot;Jo Dee Messina&quot;\n    INDEX 00 04:38:52\nFILE &quot;Jo Dee Messina - Greatest Hits - 10. Downtime.wav&quot; WAVE\n    INDEX 01 00:00:00\n  TRACK 11 AUDIO\n    TITLE &quot;Because You Love Me&quot;\n    PERFORMER &quot;Jo Dee Messina&quot;\n    INDEX 00 03:43:08\nFILE &quot;Jo Dee Messina - Greatest Hits - 11. Because You Love Me.wav&quot; WAVE\n    INDEX 01 00:00:00\n  TRACK 12 AUDIO\n    TITLE &quot;You're Not In Kansas Anymore&quot;\n    PERFORMER &quot;Jo Dee Messina&quot;\n    INDEX 00 03:50:26\nFILE &quot;Jo Dee Messina - Greatest Hits - 12. You're Not In Kansas Anymore.wav&quot; WAVE\n    INDEX 01 00:00:00\n  TRACK 13 AUDIO\n    TITLE &quot;Wishing Well&quot;\n    PERFORMER &quot;Jo Dee Messina&quot;\n    INDEX 00 02:53:14\nFILE &quot;Jo Dee Messina - Greatest Hits - 13. Wishing Well.wav&quot; WAVE\n    INDEX 01 00:00:00\n  TRACK 14 AUDIO\n    TITLE &quot;You Belong In The Sun&quot;\n    PERFORMER &quot;Jo Dee Messina&quot;\n    INDEX 00 03:09:26\nFILE &quot;Jo Dee Messina - Greatest Hits - 14. You Belong In The Sun.wav&quot; WAVE\n    INDEX 01 00:00:00\n  TRACK 15 AUDIO\n    TITLE &quot;I Wish&quot;\n    PERFORMER &quot;Jo Dee Messina&quot;\n    INDEX 00 03:35:42\nFILE &quot;Jo Dee Messina - Greatest Hits - 15. I Wish.wav&quot; WAVE\n    INDEX 01 00:00:00\n","torrent":{"xt":"urn:btih:33401727798e7feecc2a79d25a6a2fd1b38e0766","amp;dn":"Jo+Dee+Messina+-+Greatest+Hits+WAV","amp;tr":["udp%3A%2F%2Ftracker.openbittorrent.com%3A80","udp%3A%2F%2Fopen.demonii.com%3A1337","udp%3A%2F%2Ftracker.coppersurfer.tk%3A6969","udp%3A%2F%2Fexodus.desync.com%3A6969"],"infoHash":"33401727798e7feecc2a79d25a6a2fd1b38e0766","infoHashBuffer":{"type":"Buffer","data":[51,64,23,39,121,142,127,238,204,42,121,210,90,106,47,209,179,142,7,102]},"announce":[],"urlList":[]}}